# xmcd
#
# Track frame offsets:
#	150
#	2697
#	8209
#	11485
#	14768
#	17987
#	21206
#	24318
#	27434
#	30823
#	34209
#	37518
#	40824
#	44164
#	47510
#	50689
#	53874
#	57312
#	60634
#	63958
#	67401
#	70663
#	74168
#	77428
#	80940
#	87162
#	93385
#	96358
#	99524
#	102499
#	105675
#	112646
#	119608
#	123127
#	126578
#	130099
#	133552
#	142758
#	151962
#	155319
#	158900
#	162255
#	165844
#	169455
#
# Disc length: 2310 seconds
#
# Revision: 1
# Processed by: cddbd v1.5.2PL0 Copyright (c) Steve Scherf et al.
# Submitted via: audiograbber 1.83.01
#
DISCID=4b09042c
DTITLE=John Ganapes - Jazzin' The Blues
DYEAR=1900
DGENRE=Blues
TTITLE0=Introduction
TTITLE1=Tuning
TTITLE2=Old Time Blues Accompaniment
TTITLE3=Old Time Blues
TTITLE4=Cool Shade Accompaniment
TTITLE5=Cool Shade
TTITLE6=Blues For Charlie Accompaniment
TTITLE7=Blues For Charlie
TTITLE8=Jazzin The Blues Accompaniment
TTITLE9=Jazzin The Blues
TTITLE10=Too Too Smooth Accompaniment
TTITLE11=Too Too Smooth Too Accompaniment
TTITLE12=Too Too Smooth
TTITLE13=Too Too Smooth Too
TTITLE14=Hello, Mr. Christian Accompaniment
TTITLE15=Hello, Mr. Christian
TTITLE16=Rising Blues Accompaniment
TTITLE17=Too Too Smooth Revisited
TTITLE18=Too Too Smooth Revisited
TTITLE19=Rising Blues
TTITLE20=Punctuatin' The Blues Accompaniment
TTITLE21=Swingin Bop Accompaniment
TTITLE22=Punctuatin' The Blues 
TTITLE23=Swingin Bop
TTITLE24=Let Me Tell You Accompaniment
TTITLE25=Let Me Tell You
TTITLE26=From East To Wes Accompaniment
TTITLE27=Up And Down The Blocj Accompaniment
TTITLE28=From East To Wes
TTITLE29=Up And Down The Block
TTITLE30=Alone At Midnight Accompaniment
TTITLE31=Alone At Midnight
TTITLE32=For Mr. M Accompaniment
TTITLE33=Mr M Returns Accompaniment
TTITLE34=For Mr M
TTITLE35=Mr M Returns
TTITLE36=Three Ways To Say It Accompaniment
TTITLE37=Three Ways To Say It
TTITLE38=Drivin' The Coast Accompaniment
TTITLE39=Bluebird Accompaniment
TTITLE40=Drivin' The Coast
TTITLE41=Bluebird
TTITLE42=And I Qoute Accompaniment
TTITLE43=And I Quote
EXTD=
EXTT0=
EXTT1=
EXTT2=
EXTT3=
EXTT4=
EXTT5=
EXTT6=
EXTT7=
EXTT8=
EXTT9=
EXTT10=
EXTT11=
EXTT12=
EXTT13=
EXTT14=
EXTT15=
EXTT16=
EXTT17=
EXTT18=
EXTT19=
EXTT20=
EXTT21=
EXTT22=
EXTT23=
EXTT24=
EXTT25=
EXTT26=
EXTT27=
EXTT28=
EXTT29=
EXTT30=
EXTT31=
EXTT32=
EXTT33=
EXTT34=
EXTT35=
EXTT36=
EXTT37=
EXTT38=
EXTT39=
EXTT40=
EXTT41=
EXTT42=
EXTT43=
PLAYORDER=
